<svg xmlns="http://www.w3.org/2000/svg" width="412" height="398" viewBox="0 0 412 398">
  <rect width="412" height="398" fill="#fff"/>
  <g stroke="#ccc" stroke-width="1" fill="none">
    <path d="M 23.77 16 L 23.77 363"/>
    <path d="M 55.16 16 L 55.16 363"/>
    <path d="M 86.56 16 L 86.56 363"/>
    <path d="M 117.94 16 L 117.94 363"/>
    <path d="M 149.34 16 L 149.34 363"/>
    <path d="M 180.72 16 L 180.72 363"/>
    <path d="M 212.12 16 L 212.12 363"/>
    <path d="M 243.51 16 L 243.51 363"/>
    <path d="M 274.89 16 L 274.89 363"/>
    <path d="M 306.28 16 L 306.28 363"/>
    <path d="M 337.67 16 L 337.67 363"/>
    <path d="M 369.06 16 L 369.06 363"/>
    <path d="M 400.45 16 L 400.45 363"/>
    <path d="M 19 18.91 L 403 18.91"/>
    <path d="M 19 50.33 L 403 50.33"/>
    <path d="M 19 81.74 L 403 81.74"/>
    <path d="M 19 113.16 L 403 113.16"/>
    <path d="M 19 144.58 L 403 144.58"/>
    <path d="M 19 175.99 L 403 175.99"/>
    <path d="M 19 207.41 L 403 207.41"/>
    <path d="M 19 238.82 L 403 238.82"/>
    <path d="M 19 270.24 L 403 270.24"/>
    <path d="M 19 301.66 L 403 301.66"/>
    <path d="M 19 333.07 L 403 333.07"/>
  </g>
  <g fill="#421313" fill-opacity="0.265">
    <path d="M 55.17 176.00 L 306.29 176.00 L 243.51 301.66 L 117.95 301.66 Z"/>
    <path d="M 55.17 50.33 A 125.56 125.67 0 0 1 180.73 176.00 Z"/>
    <path d="M 306.29 50.33 A 125.56 125.67 0 0 0 180.73 176.00 Z"/>
  </g>
  <g stroke="#4d4d4d" stroke-width="1.7" fill="none">
    <path d="M 55.17 50.33 A 125.56 125.67 0 0 1 180.73 176.00 Z"/>
    <path d="M 306.29 50.33 A 125.56 125.67 0 0 0 180.73 176.00 Z"/>
  </g>
  <g stroke="#421313" stroke-width="1.6" fill="none">
    <path d="M 55.17 50.33 L 306.29 50.33 L 306.29 301.66 L 55.17 301.66 Z"/>
    <path d="M 55.17 176.00 L 306.29 176.00"/>
    <path d="M 55.17 176.00 L 117.95 301.66"/>
    <path d="M 306.29 176.00 L 243.51 301.66"/>
  </g>
  <path d="M 337.68 301.66 L 369.07 301.66" stroke="#4f4f4f" stroke-width="1.2" fill="none"/>
  <circle cx="337.68" cy="301.66" r="2.7" fill="#330000"/>
  <circle cx="369.07" cy="301.66" r="2.7" fill="#330000"/>
  <text x="355" y="327" font-family="Times New Roman,serif" font-style="italic" font-size="33" text-anchor="middle" fill="#000">j</text>
</svg>
