<svg xmlns="http://www.w3.org/2000/svg" width="1000" height="520" viewBox="0 0 1000 520">
  <rect width="1000" height="520" fill="#fff"/>
  <g fill="none" stroke="#000">
    <line x1="42" y1="411.94" x2="903" y2="411.94" stroke-width="4.05"/>
    <line x1="181.5" y1="98.5" x2="473.4" y2="411.94" stroke-width="4.33"/>
    <line x1="699.3" y1="43" x2="472.08" y2="411.94" stroke-width="4.33"/>
    <path d="M 374.24 411.90 A 98.36 98.36 0 0 1 405.58 339.90" stroke-width="1.5"/>
    <path d="M 386.23 319.10 A 126.78 126.78 0 0 1 539.09 303.96" stroke-width="1.5"/>
    <path d="M 521.45 332.61 A 93.13 93.13 0 0 1 565.73 411.90" stroke-width="1.5"/>
  </g>
  <g fill="#000">
    <circle cx="133.5" cy="411.9" r="8"/>
    <circle cx="470.6" cy="411.9" r="8"/>
    <circle cx="825.5" cy="411.9" r="8"/>
    <circle cx="238.4" cy="159.6" r="8"/>
    <circle cx="659.6" cy="105.8" r="8"/>
  </g>
  <text x="120.5" y="472.5" font-family="Times New Roman,serif" font-size="66.5" text-anchor="middle" fill="#000">A</text>
  <text x="467" y="472.5" font-family="Times New Roman,serif" font-size="66.5" text-anchor="middle" fill="#000">B</text>
  <text x="818" y="477" font-family="Times New Roman,serif" font-size="66.5" text-anchor="middle" fill="#000">C</text>
  <text x="692" y="135.5" font-family="Times New Roman,serif" font-size="66.5" text-anchor="middle" fill="#000">D</text>
  <text x="199.5" y="198.5" font-family="Times New Roman,serif" font-size="66.5" text-anchor="middle" fill="#000">E</text>
  <text x="410.5" y="404.5" font-family="Times New Roman,serif" font-size="69" font-style="italic" text-anchor="middle" fill="#000">&#945;</text>
  <text x="471.5" y="359.5" font-family="Times New Roman,serif" font-size="69" font-style="italic" text-anchor="middle" fill="#000">&#946;</text>
  <text x="526" y="391" font-family="Times New Roman,serif" font-size="67" font-style="italic" text-anchor="middle" fill="#000">&#947;</text>
</svg>
