<svg xmlns="http://www.w3.org/2000/svg" width="520" height="340" viewBox="0 0 520 340">
<rect width="520" height="340" fill="#fff"/>
<line x1="34.0" y1="153.1" x2="260.5" y2="153.7" stroke="#4a4a4a" stroke-width="1.6" stroke-linecap="round"/>
<line x1="260.5" y1="153.7" x2="260.6" y2="292.1" stroke="#4a4a4a" stroke-width="1.6" stroke-linecap="round"/>
<line x1="260.6" y1="292.1" x2="34.0" y2="291.7" stroke="#4a4a4a" stroke-width="1.6" stroke-linecap="round"/>
<line x1="34.0" y1="291.7" x2="34.0" y2="153.1" stroke="#4a4a4a" stroke-width="1.6" stroke-linecap="round"/>
<line x1="190.0" y1="119.0" x2="418.0" y2="117.0" stroke="#4a4a4a" stroke-width="1.6" stroke-dasharray="4,3" stroke-linecap="round"/>
<line x1="418.0" y1="117.0" x2="418.0" y2="257.0" stroke="#4a4a4a" stroke-width="1.6" stroke-linecap="round"/>
<line x1="418.0" y1="257.0" x2="190.0" y2="256.0" stroke="#4a4a4a" stroke-width="1.6" stroke-dasharray="4,3" stroke-linecap="round"/>
<line x1="190.0" y1="256.0" x2="190.0" y2="119.0" stroke="#4a4a4a" stroke-width="1.6" stroke-dasharray="4,3" stroke-linecap="round"/>
<line x1="34.0" y1="153.1" x2="190.0" y2="119.0" stroke="#4a4a4a" stroke-width="1.6" stroke-dasharray="4,3" stroke-linecap="round"/>
<line x1="260.5" y1="153.7" x2="418.0" y2="117.0" stroke="#4a4a4a" stroke-width="1.6" stroke-linecap="round"/>
<line x1="34.0" y1="291.7" x2="190.0" y2="256.0" stroke="#4a4a4a" stroke-width="1.6" stroke-dasharray="4,3" stroke-linecap="round"/>
<line x1="260.6" y1="292.1" x2="418.0" y2="257.0" stroke="#4a4a4a" stroke-width="1.6" stroke-linecap="round"/>
<line x1="219.0" y1="20.0" x2="34.0" y2="153.1" stroke="#4a4a4a" stroke-width="1.6" stroke-linecap="round"/>
<line x1="219.0" y1="20.0" x2="260.5" y2="153.7" stroke="#4a4a4a" stroke-width="1.6" stroke-linecap="round"/>
<line x1="219.0" y1="20.0" x2="190.0" y2="119.0" stroke="#4a4a4a" stroke-width="1.6" stroke-dasharray="4,3" stroke-linecap="round"/>
<line x1="219.0" y1="20.0" x2="418.0" y2="117.0" stroke="#4a4a4a" stroke-width="1.6" stroke-linecap="round"/>
</svg>