<svg xmlns="http://www.w3.org/2000/svg" width="1600" height="660" viewBox="0 0 1600 660">
  <rect width="1600" height="660" fill="#fff"/>

  <!-- 25 matchsticks: black round-capped stick + black head bar, then the white channel and the white head lens punched back out -->
  <g>
    <line x1="557.4" y1="584.9" x2="557.5" y2="350.1" stroke="#000" stroke-width="31.2" stroke-linecap="round"/>
    <ellipse cx="557.6" cy="317.6" rx="29.5" ry="17.5" fill="#000" transform="rotate(-90 557.6 317.6)"/>
    <ellipse cx="557.6" cy="317.6" rx="18.4" ry="5.2" fill="#fff" transform="rotate(-90 557.6 317.6)"/>
    <line x1="557.4" y1="584.9" x2="557.5" y2="350.1" stroke="#fff" stroke-width="9.2" stroke-linecap="round"/>
  </g>
  <g>
    <line x1="1531.8" y1="351.6" x2="1532.5" y2="587.4" stroke="#000" stroke-width="31.2" stroke-linecap="round"/>
    <ellipse cx="1531.7" cy="319.1" rx="29.5" ry="17.5" fill="#000" transform="rotate(-90.2 1531.7 319.1)"/>
    <ellipse cx="1531.7" cy="319.1" rx="18.4" ry="5.2" fill="#fff" transform="rotate(-90.2 1531.7 319.1)"/>
    <line x1="1531.8" y1="351.6" x2="1532.5" y2="587.4" stroke="#fff" stroke-width="9.2" stroke-linecap="round"/>
  </g>
  <g>
    <line x1="63.7" y1="589.4" x2="64.1" y2="353.6" stroke="#000" stroke-width="31.2" stroke-linecap="round"/>
    <ellipse cx="64.2" cy="321.1" rx="29.5" ry="17.5" fill="#000" transform="rotate(-89.9 64.2 321.1)"/>
    <ellipse cx="64.2" cy="321.1" rx="18.4" ry="5.2" fill="#fff" transform="rotate(-89.9 64.2 321.1)"/>
    <line x1="63.7" y1="589.4" x2="64.1" y2="353.6" stroke="#fff" stroke-width="9.2" stroke-linecap="round"/>
  </g>
  <g>
    <line x1="1047.9" y1="567.4" x2="1048" y2="360.6" stroke="#000" stroke-width="31.2" stroke-linecap="round"/>
    <ellipse cx="1048" cy="328.1" rx="29.5" ry="17.5" fill="#000" transform="rotate(-90 1048 328.1)"/>
    <ellipse cx="1048" cy="328.1" rx="18.4" ry="5.2" fill="#fff" transform="rotate(-90 1048 328.1)"/>
    <line x1="1047.9" y1="567.4" x2="1048" y2="360.6" stroke="#fff" stroke-width="9.2" stroke-linecap="round"/>
  </g>
  <g>
    <line x1="440.3" y1="87.7" x2="552.2" y2="258" stroke="#000" stroke-width="32.4" stroke-linecap="round"/>
    <ellipse cx="422.5" cy="60.5" rx="30.5" ry="19.5" fill="#000" transform="rotate(-123.3 422.5 60.5)"/>
    <ellipse cx="422.5" cy="60.5" rx="18.4" ry="5.7" fill="#fff" transform="rotate(-123.3 422.5 60.5)"/>
    <line x1="440.3" y1="87.7" x2="552.2" y2="258" stroke="#fff" stroke-width="8.7" stroke-linecap="round"/>
  </g>
  <g>
    <line x1="57.3" y1="289.1" x2="186.9" y2="91.7" stroke="#000" stroke-width="32.4" stroke-linecap="round"/>
    <ellipse cx="204.7" cy="64.5" rx="30.5" ry="19.5" fill="#000" transform="rotate(-56.7 204.7 64.5)"/>
    <ellipse cx="204.7" cy="64.5" rx="18.4" ry="5.7" fill="#fff" transform="rotate(-56.7 204.7 64.5)"/>
    <line x1="57.3" y1="289.1" x2="186.9" y2="91.7" stroke="#fff" stroke-width="8.7" stroke-linecap="round"/>
  </g>
  <g>
    <line x1="1421" y1="95.9" x2="1550.5" y2="293.1" stroke="#000" stroke-width="32.4" stroke-linecap="round"/>
    <ellipse cx="1403.2" cy="68.7" rx="30.5" ry="19.5" fill="#000" transform="rotate(-123.3 1403.2 68.7)"/>
    <ellipse cx="1403.2" cy="68.7" rx="18.4" ry="5.7" fill="#fff" transform="rotate(-123.3 1403.2 68.7)"/>
    <line x1="1421" y1="95.9" x2="1550.5" y2="293.1" stroke="#fff" stroke-width="8.7" stroke-linecap="round"/>
  </g>
  <g>
    <line x1="928.9" y1="99.8" x2="1036.9" y2="264.3" stroke="#000" stroke-width="32.4" stroke-linecap="round"/>
    <ellipse cx="911.1" cy="72.6" rx="30.5" ry="19.5" fill="#000" transform="rotate(-123.3 911.1 72.6)"/>
    <ellipse cx="911.1" cy="72.6" rx="18.4" ry="5.7" fill="#fff" transform="rotate(-123.3 911.1 72.6)"/>
    <line x1="928.9" y1="99.8" x2="1036.9" y2="264.3" stroke="#fff" stroke-width="8.7" stroke-linecap="round"/>
  </g>
  <g>
    <line x1="1037.8" y1="297.3" x2="1167.5" y2="99.9" stroke="#000" stroke-width="32.4" stroke-linecap="round"/>
    <ellipse cx="1185.3" cy="72.7" rx="30.5" ry="19.5" fill="#000" transform="rotate(-56.7 1185.3 72.7)"/>
    <ellipse cx="1185.3" cy="72.7" rx="18.4" ry="5.7" fill="#fff" transform="rotate(-56.7 1185.3 72.7)"/>
    <line x1="1037.8" y1="297.3" x2="1167.5" y2="99.9" stroke="#fff" stroke-width="8.7" stroke-linecap="round"/>
  </g>
  <g>
    <line x1="545.8" y1="301.5" x2="675.6" y2="103.9" stroke="#000" stroke-width="32.4" stroke-linecap="round"/>
    <ellipse cx="693.5" cy="76.7" rx="30.5" ry="19.5" fill="#000" transform="rotate(-56.7 693.5 76.7)"/>
    <ellipse cx="693.5" cy="76.7" rx="18.4" ry="5.7" fill="#fff" transform="rotate(-56.7 693.5 76.7)"/>
    <line x1="545.8" y1="301.5" x2="675.6" y2="103.9" stroke="#fff" stroke-width="8.7" stroke-linecap="round"/>
  </g>
  <g>
    <line x1="118.6" y1="313" x2="293.4" y2="313" stroke="#000" stroke-width="37.3" stroke-linecap="round"/>
    <ellipse cx="86.6" cy="313" rx="25.3" ry="20.1" fill="#000" transform="rotate(-180 86.6 313)"/>
    <ellipse cx="86.6" cy="313" rx="13.6" ry="9.1" fill="#fff" transform="rotate(-180 86.6 313)"/>
    <line x1="118.6" y1="313" x2="293.4" y2="313" stroke="#fff" stroke-width="15.2" stroke-linecap="round"/>
  </g>
  <g>
    <line x1="358.6" y1="312.8" x2="532.4" y2="313.5" stroke="#000" stroke-width="37.3" stroke-linecap="round"/>
    <ellipse cx="326.6" cy="312.7" rx="25.3" ry="20.1" fill="#000" transform="rotate(-179.8 326.6 312.7)"/>
    <ellipse cx="326.6" cy="312.7" rx="13.6" ry="9.1" fill="#fff" transform="rotate(-179.8 326.6 312.7)"/>
    <line x1="358.6" y1="312.8" x2="532.4" y2="313.5" stroke="#fff" stroke-width="15.2" stroke-linecap="round"/>
  </g>
  <g>
    <line x1="613.8" y1="315" x2="788.2" y2="315" stroke="#000" stroke-width="37.3" stroke-linecap="round"/>
    <ellipse cx="581.8" cy="315" rx="25.3" ry="20.1" fill="#000" transform="rotate(180 581.8 315)"/>
    <ellipse cx="581.8" cy="315" rx="13.6" ry="9.1" fill="#fff" transform="rotate(180 581.8 315)"/>
    <line x1="613.8" y1="315" x2="788.2" y2="315" stroke="#fff" stroke-width="15.2" stroke-linecap="round"/>
  </g>
  <g>
    <line x1="854.6" y1="314.8" x2="1029.4" y2="315.4" stroke="#000" stroke-width="37.3" stroke-linecap="round"/>
    <ellipse cx="822.6" cy="314.7" rx="25.3" ry="20.1" fill="#000" transform="rotate(-179.8 822.6 314.7)"/>
    <ellipse cx="822.6" cy="314.7" rx="13.6" ry="9.1" fill="#fff" transform="rotate(-179.8 822.6 314.7)"/>
    <line x1="854.6" y1="314.8" x2="1029.4" y2="315.4" stroke="#fff" stroke-width="15.2" stroke-linecap="round"/>
  </g>
  <g>
    <line x1="1333.8" y1="315" x2="1508.2" y2="315" stroke="#000" stroke-width="37.3" stroke-linecap="round"/>
    <ellipse cx="1301.8" cy="315" rx="25.3" ry="20.1" fill="#000" transform="rotate(180 1301.8 315)"/>
    <ellipse cx="1301.8" cy="315" rx="13.6" ry="9.1" fill="#fff" transform="rotate(180 1301.8 315)"/>
    <line x1="1333.8" y1="315" x2="1508.2" y2="315" stroke="#fff" stroke-width="15.2" stroke-linecap="round"/>
  </g>
  <g>
    <line x1="1105.6" y1="318.9" x2="1271.4" y2="319.1" stroke="#000" stroke-width="37.3" stroke-linecap="round"/>
    <ellipse cx="1073.6" cy="318.9" rx="25.3" ry="20.1" fill="#000" transform="rotate(-179.9 1073.6 318.9)"/>
    <ellipse cx="1073.6" cy="318.9" rx="13.6" ry="9.1" fill="#fff" transform="rotate(-179.9 1073.6 318.9)"/>
    <line x1="1105.6" y1="318.9" x2="1271.4" y2="319.1" stroke="#fff" stroke-width="15.2" stroke-linecap="round"/>
  </g>
  <g>
    <line x1="1099.6" y1="586" x2="1274.4" y2="586" stroke="#000" stroke-width="37.3" stroke-linecap="round"/>
    <ellipse cx="1067.6" cy="586" rx="25.3" ry="20.1" fill="#000" transform="rotate(-180 1067.6 586)"/>
    <ellipse cx="1067.6" cy="586" rx="13.6" ry="9.1" fill="#fff" transform="rotate(-180 1067.6 586)"/>
    <line x1="1099.6" y1="586" x2="1274.4" y2="586" stroke="#fff" stroke-width="15.2" stroke-linecap="round"/>
  </g>
  <g>
    <line x1="1338.5" y1="586" x2="1513.5" y2="586" stroke="#000" stroke-width="37.3" stroke-linecap="round"/>
    <ellipse cx="1306.5" cy="586" rx="25.3" ry="20.1" fill="#000" transform="rotate(180 1306.5 586)"/>
    <ellipse cx="1306.5" cy="586" rx="13.6" ry="9.1" fill="#fff" transform="rotate(180 1306.5 586)"/>
    <line x1="1338.5" y1="586" x2="1513.5" y2="586" stroke="#fff" stroke-width="15.2" stroke-linecap="round"/>
  </g>
  <g>
    <line x1="120.5" y1="590" x2="295.5" y2="590" stroke="#000" stroke-width="37.3" stroke-linecap="round"/>
    <ellipse cx="88.5" cy="590" rx="25.3" ry="20.1" fill="#000" transform="rotate(180 88.5 590)"/>
    <ellipse cx="88.5" cy="590" rx="13.6" ry="9.1" fill="#fff" transform="rotate(180 88.5 590)"/>
    <line x1="120.5" y1="590" x2="295.5" y2="590" stroke="#fff" stroke-width="15.2" stroke-linecap="round"/>
  </g>
  <g>
    <line x1="361.5" y1="590" x2="533.5" y2="590" stroke="#000" stroke-width="37.3" stroke-linecap="round"/>
    <ellipse cx="329.5" cy="590" rx="25.3" ry="20.1" fill="#000" transform="rotate(180 329.5 590)"/>
    <ellipse cx="329.5" cy="590" rx="13.6" ry="9.1" fill="#fff" transform="rotate(180 329.5 590)"/>
    <line x1="361.5" y1="590" x2="533.5" y2="590" stroke="#fff" stroke-width="15.2" stroke-linecap="round"/>
  </g>
  <g>
    <line x1="618.6" y1="590" x2="790.4" y2="590" stroke="#000" stroke-width="37.3" stroke-linecap="round"/>
    <ellipse cx="586.6" cy="590" rx="25.3" ry="20.1" fill="#000" transform="rotate(-180 586.6 590)"/>
    <ellipse cx="586.6" cy="590" rx="13.6" ry="9.1" fill="#fff" transform="rotate(-180 586.6 590)"/>
    <line x1="618.6" y1="590" x2="790.4" y2="590" stroke="#fff" stroke-width="15.2" stroke-linecap="round"/>
  </g>
  <g>
    <line x1="854.5" y1="590" x2="1029.5" y2="590" stroke="#000" stroke-width="37.3" stroke-linecap="round"/>
    <ellipse cx="822.5" cy="590" rx="25.3" ry="20.1" fill="#000" transform="rotate(180 822.5 590)"/>
    <ellipse cx="822.5" cy="590" rx="13.6" ry="9.1" fill="#fff" transform="rotate(180 822.5 590)"/>
    <line x1="854.5" y1="590" x2="1029.5" y2="590" stroke="#fff" stroke-width="15.2" stroke-linecap="round"/>
  </g>
  <g>
    <line x1="235.6" y1="56" x2="396.4" y2="56.1" stroke="#000" stroke-width="37.3" stroke-linecap="round"/>
    <line x1="235.6" y1="56" x2="396.4" y2="56.1" stroke="#fff" stroke-width="15.2" stroke-linecap="round"/>
  </g>
  <g>
    <line x1="1216.6" y1="63.9" x2="1376.4" y2="64.1" stroke="#000" stroke-width="37.3" stroke-linecap="round"/>
    <line x1="1216.6" y1="63.9" x2="1376.4" y2="64.1" stroke="#fff" stroke-width="15.2" stroke-linecap="round"/>
  </g>
  <g>
    <line x1="724.6" y1="67.9" x2="884.4" y2="68.1" stroke="#000" stroke-width="37.3" stroke-linecap="round"/>
    <line x1="724.6" y1="67.9" x2="884.4" y2="68.1" stroke="#fff" stroke-width="15.2" stroke-linecap="round"/>
  </g>
</svg>
