<svg xmlns="http://www.w3.org/2000/svg" width="680" height="500" viewBox="0 0 680 500">

  <!-- prism side faces, back to front -->
  <g stroke="#161616" stroke-width="2" stroke-linejoin="round">
    <path fill="#dcdcdc" d="M206.6 214.5 L141.9 129.5 L284.4 57.3 L349.1 142.4 Z" />
    <path fill="#969696" d="M272.4 300.9 L333.2 244.1 L475.6 171.9 L414.8 228.7 Z" />
    <path fill="#969696" d="M144.3 400.3 L205.5 344.0 L348.0 271.8 L286.8 328.1 Z" />
    <path fill="#dcdcdc" d="M333.2 380.9 L272.4 300.9 L414.8 228.7 L475.7 308.7 Z" />
    <path fill="#cfcfcf" d="M141.9 129.5 L79.6 109.6 L222.1 37.5 L284.4 57.3 Z" />
    <path fill="#cecece" d="M333.4 178.0 L272.2 158.6 L414.7 86.4 L475.8 105.8 Z" />
    <path fill="#a5a5a5" d="M333.2 244.1 L333.4 178.0 L475.8 105.8 L475.6 171.9 Z" />
    <path fill="#a5a5a5" d="M333.0 448.2 L333.2 380.9 L475.7 308.7 L475.5 376.0 Z" />
  </g>

  <!-- front cross face -->
  <path fill="#cfcfcf" stroke="#161616" stroke-width="2" stroke-linejoin="round" d="M79.6 109.6 L79.5 179.8 L142.7 262.2 L79.7 316.7 L79.5 382.1 L144.3 400.3 L205.5 344.0 L271.5 429.7 L333.0 448.2 L333.2 380.9 L272.4 300.9 L333.2 244.1 L333.4 178.0 L272.2 158.6 L206.6 214.5 L141.9 129.5 Z" />

  <!-- dimension arrows -->
  <g stroke="#7a7a7a" stroke-width="1.8" fill="none">
    <path d="M51.7 106.0 L51.7 382.0" />
    <path d="M77.5 397.5 L138.0 414.5" />
    <path d="M137.5 386.5 L198.5 331.5" />
    <path d="M215.0 341.0 L274.0 418.0" />
    <path d="M270.0 445.5 L332.0 464.5" />
    <path d="M337.0 463.0 L479.0 392.0" />
    <path d="M494.0 309.0 L494.0 374.0" />
  </g>
  <g fill="#161616">
    <path d="M51.7 382.0 L48.7 375.0 L54.7 375.0 Z" />
    <path d="M51.7 106.0 L48.7 113.0 L54.7 113.0 Z" />
    <path d="M138.0 414.5 L130.4 415.5 L132.1 409.7 Z" />
    <path d="M77.5 397.5 L83.4 402.3 L85.1 396.5 Z" />
    <path d="M198.5 331.5 L195.3 338.4 L191.3 334.0 Z" />
    <path d="M137.5 386.5 L144.7 384.0 L140.7 379.6 Z" />
    <path d="M274.0 418.0 L267.4 414.3 L272.1 410.6 Z" />
    <path d="M215.0 341.0 L216.9 348.4 L221.6 344.7 Z" />
    <path d="M332.0 464.5 L324.4 465.3 L326.2 459.6 Z" />
    <path d="M270.0 445.5 L275.8 450.4 L277.6 444.7 Z" />
    <path d="M479.0 392.0 L474.1 397.8 L471.4 392.4 Z" />
    <path d="M337.0 463.0 L344.6 462.6 L341.9 457.2 Z" />
    <path d="M494.0 374.0 L491.0 367.0 L497.0 367.0 Z" />
    <path d="M494.0 309.0 L491.0 316.0 L497.0 316.0 Z" />
  </g>

  <!-- dimension labels -->
  <g fill="#161616">
    <text transform="translate(44.0 262.0) rotate(-90)" font-family="Helvetica,Arial,sans-serif" font-weight="bold" font-size="16">15 cm</text>
    <text transform="translate(85.0 418.5) rotate(17)" font-family="Helvetica,Arial,sans-serif" font-weight="bold" font-size="16">5 cm</text>
    <text transform="translate(149.0 364.5) rotate(-42.6)" font-family="Helvetica,Arial,sans-serif" font-weight="bold" font-size="16">5 cm</text>
    <text transform="translate(239.0 360.0) rotate(53)" font-family="Helvetica,Arial,sans-serif" font-weight="bold" font-size="16">5 cm</text>
    <text transform="translate(278.0 466.5) rotate(20.7)" font-family="Helvetica,Arial,sans-serif" font-weight="bold" font-size="16">5 cm</text>
    <text transform="translate(415.0 439.5)" font-family="Helvetica,Arial,sans-serif" font-weight="bold" font-size="16">15 cm</text>
    <text transform="translate(506.0 351.5)" font-family="Helvetica,Arial,sans-serif" font-weight="bold" font-size="16">5 cm</text>
  </g>
</svg>
