<svg xmlns="http://www.w3.org/2000/svg" width="975" height="350" viewBox="0 0 975 350">
<rect x="0" y="0" width="975" height="350" fill="#fff"/>
<rect x="46" y="6" width="907" height="308" fill="#f4f4f4"/>
<!-- Fence of 37 matches (zapalki): 7 pickets. Each match is a thin shaft plus a
     fat head at one end, drawn as a short round-capped stub along the shaft axis. -->
<g stroke="#1a1a1a" fill="none" stroke-linecap="round">
<!-- shafts: 8 uprights, two matches end to end each (heads at y=107.7 and y=205.8) -->
<line x1="65.3" y1="104.0" x2="65.3" y2="295.0" stroke-width="2.2"/>
<line x1="185.6" y1="104.0" x2="185.6" y2="295.0" stroke-width="2.2"/>
<line x1="308.0" y1="104.0" x2="308.0" y2="295.0" stroke-width="2.2"/>
<line x1="432.5" y1="104.0" x2="432.5" y2="295.0" stroke-width="2.2"/>
<line x1="558.0" y1="104.0" x2="558.0" y2="295.0" stroke-width="2.2"/>
<line x1="681.8" y1="104.0" x2="681.8" y2="295.0" stroke-width="2.2"/>
<line x1="804.6" y1="104.0" x2="804.6" y2="295.0" stroke-width="2.2"/>
<line x1="924.5" y1="104.0" x2="924.5" y2="295.0" stroke-width="2.2"/>
<!-- shafts: 14 roof matches, head at the apex -->
<line x1="115.7" y1="26.0" x2="61.9" y2="109.0" stroke-width="2.2"/>
<line x1="128.9" y1="26.0" x2="189.0" y2="109.0" stroke-width="2.2"/>
<line x1="239.8" y1="26.0" x2="182.2" y2="109.0" stroke-width="2.2"/>
<line x1="252.4" y1="26.0" x2="311.4" y2="109.0" stroke-width="2.2"/>
<line x1="363.3" y1="26.0" x2="304.6" y2="109.0" stroke-width="2.2"/>
<line x1="376.5" y1="26.0" x2="435.9" y2="109.0" stroke-width="2.2"/>
<line x1="489.8" y1="26.0" x2="429.1" y2="109.0" stroke-width="2.2"/>
<line x1="503.0" y1="26.0" x2="561.4" y2="109.0" stroke-width="2.2"/>
<line x1="613.4" y1="26.0" x2="554.6" y2="109.0" stroke-width="2.2"/>
<line x1="626.5" y1="26.0" x2="685.2" y2="109.0" stroke-width="2.2"/>
<line x1="736.7" y1="26.0" x2="678.4" y2="109.0" stroke-width="2.2"/>
<line x1="750.2" y1="26.0" x2="808.0" y2="109.0" stroke-width="2.2"/>
<line x1="859.9" y1="26.0" x2="801.2" y2="109.0" stroke-width="2.2"/>
<line x1="873.1" y1="26.0" x2="927.9" y2="109.0" stroke-width="2.2"/>
<!-- shafts: 7 bottom rails, head at the left end -->
<line x1="80.6" y1="290.0" x2="169.0" y2="290.0" stroke-width="1.9"/>
<line x1="204.6" y1="290.0" x2="292.0" y2="290.0" stroke-width="1.9"/>
<line x1="328.1" y1="290.0" x2="416.0" y2="290.0" stroke-width="1.9"/>
<line x1="454.8" y1="290.0" x2="543.0" y2="290.0" stroke-width="1.9"/>
<line x1="578.5" y1="290.0" x2="666.0" y2="290.0" stroke-width="1.9"/>
<line x1="701.9" y1="290.0" x2="790.0" y2="290.0" stroke-width="1.9"/>
<line x1="825.4" y1="290.0" x2="912.0" y2="290.0" stroke-width="1.9"/>
</g>
<g stroke="#111" fill="none" stroke-linecap="round">
<!-- heads: uprights -->
<line x1="65.3" y1="106.00" x2="65.3" y2="109.40" stroke-width="7.4"/>
<line x1="65.3" y1="204.10" x2="65.3" y2="207.50" stroke-width="7.4"/>
<line x1="185.6" y1="106.00" x2="185.6" y2="109.40" stroke-width="7.4"/>
<line x1="185.6" y1="204.10" x2="185.6" y2="207.50" stroke-width="7.4"/>
<line x1="308.0" y1="106.00" x2="308.0" y2="109.40" stroke-width="7.4"/>
<line x1="308.0" y1="204.10" x2="308.0" y2="207.50" stroke-width="7.4"/>
<line x1="432.5" y1="106.00" x2="432.5" y2="109.40" stroke-width="7.4"/>
<line x1="432.5" y1="204.10" x2="432.5" y2="207.50" stroke-width="7.4"/>
<line x1="558.0" y1="106.00" x2="558.0" y2="109.40" stroke-width="7.4"/>
<line x1="558.0" y1="204.10" x2="558.0" y2="207.50" stroke-width="7.4"/>
<line x1="681.8" y1="106.00" x2="681.8" y2="109.40" stroke-width="7.4"/>
<line x1="681.8" y1="204.10" x2="681.8" y2="207.50" stroke-width="7.4"/>
<line x1="804.6" y1="106.00" x2="804.6" y2="109.40" stroke-width="7.4"/>
<line x1="804.6" y1="204.10" x2="804.6" y2="207.50" stroke-width="7.4"/>
<line x1="924.5" y1="106.00" x2="924.5" y2="109.40" stroke-width="7.4"/>
<line x1="924.5" y1="204.10" x2="924.5" y2="207.50" stroke-width="7.4"/>
<!-- heads: roof, aligned with each match axis -->
<line x1="116.62" y1="24.57" x2="114.78" y2="27.43" stroke-width="7.0"/>
<line x1="127.90" y1="24.62" x2="129.90" y2="27.38" stroke-width="7.0"/>
<line x1="240.77" y1="24.60" x2="238.83" y2="27.40" stroke-width="7.0"/>
<line x1="251.42" y1="24.61" x2="253.38" y2="27.39" stroke-width="7.0"/>
<line x1="364.28" y1="24.61" x2="362.32" y2="27.39" stroke-width="7.0"/>
<line x1="375.51" y1="24.62" x2="377.49" y2="27.38" stroke-width="7.0"/>
<line x1="490.80" y1="24.63" x2="488.80" y2="27.37" stroke-width="7.0"/>
<line x1="502.02" y1="24.61" x2="503.98" y2="27.39" stroke-width="7.0"/>
<line x1="614.38" y1="24.61" x2="612.42" y2="27.39" stroke-width="7.0"/>
<line x1="625.52" y1="24.61" x2="627.48" y2="27.39" stroke-width="7.0"/>
<line x1="737.68" y1="24.61" x2="735.72" y2="27.39" stroke-width="7.0"/>
<line x1="749.23" y1="24.60" x2="751.17" y2="27.40" stroke-width="7.0"/>
<line x1="860.88" y1="24.61" x2="858.92" y2="27.39" stroke-width="7.0"/>
<line x1="872.16" y1="24.58" x2="874.04" y2="27.42" stroke-width="7.0"/>
<!-- heads: bottom rails -->
<line x1="78.90" y1="290.0" x2="82.30" y2="290.0" stroke-width="7.4"/>
<line x1="202.90" y1="290.0" x2="206.30" y2="290.0" stroke-width="7.4"/>
<line x1="326.40" y1="290.0" x2="329.80" y2="290.0" stroke-width="7.4"/>
<line x1="453.10" y1="290.0" x2="456.50" y2="290.0" stroke-width="7.4"/>
<line x1="576.80" y1="290.0" x2="580.20" y2="290.0" stroke-width="7.4"/>
<line x1="700.20" y1="290.0" x2="703.60" y2="290.0" stroke-width="7.4"/>
<line x1="823.70" y1="290.0" x2="827.10" y2="290.0" stroke-width="7.4"/>
</g>
</svg>
