<svg xmlns="http://www.w3.org/2000/svg" width="290" height="350" viewBox="0 0 290 350">
<rect width="290" height="350" fill="#fff"/>

<!-- circle -->
<circle cx="155" cy="154" r="126" fill="none" stroke="#000" stroke-width="3"/>

<!-- rectangle 2x2 grid -->
<rect x="83.5" y="54.5" width="143.5" height="199" fill="none" stroke="#000" stroke-width="3"/>
<line x1="155.5" y1="54.5" x2="155.5" y2="253.5" stroke="#000" stroke-width="3"/>
<line x1="83.5" y1="152.5" x2="227" y2="152.5" stroke="#000" stroke-width="3"/>

<!-- diagonal in top-left cell -->
<line x1="83.5" y1="152.5" x2="155.5" y2="54.5" stroke="#000" stroke-width="3"/>

<!-- label x -->
<text x="102" y="97" font-family="Times New Roman,serif" font-size="16" font-style="italic" fill="#000">x</text>

<!-- dimension line -->
<line x1="83.5" y1="253.5" x2="83.5" y2="320" stroke="#000" stroke-width="1.5"/>
<line x1="227" y1="253.5" x2="227" y2="320" stroke="#000" stroke-width="1.5"/>
<line x1="29" y1="154" x2="29" y2="320" stroke="#000" stroke-width="1.5"/>
<line x1="281" y1="154" x2="281" y2="320" stroke="#000" stroke-width="1.5"/>
<line x1="25" y1="318" x2="284" y2="318" stroke="#000" stroke-width="1.5"/>

<!-- arrowheads -->
<path d="M25,318 L33,314 L33,322 Z" fill="#000"/>
<path d="M83.5,318 L75.5,314 L75.5,322 Z" fill="#000"/>
<path d="M83.5,318 L91.5,314 L91.5,322 Z" fill="#000"/>
<path d="M227,318 L219,314 L219,322 Z" fill="#000"/>
<path d="M227,318 L235,314 L235,322 Z" fill="#000"/>
<path d="M284,318 L276,314 L276,322 Z" fill="#000"/>

<!-- labels -->
<text x="49" y="312" font-family="Times New Roman,serif" font-size="20" fill="#000">2</text>
<text x="150" y="312" font-family="Times New Roman,serif" font-size="20" fill="#000">8</text>
<text x="250" y="312" font-family="Times New Roman,serif" font-size="20" fill="#000">2</text>
</svg>
