<svg xmlns="http://www.w3.org/2000/svg" width="417" height="355" viewBox="0 0 417 355">
  <rect width="417" height="355" fill="#fff"/>

  <!-- grey fills first, the strokes below cover their edges -->
  <path d="M42.5 35 L331.5 35 L186.98 179.49 Z" fill="#bfbfbf"/>
  <path d="M186.5 327.2 L258.43 250.95 L334.0 326.5 L334.0 327.2 Z" fill="#bfbfbf"/>

  <g fill="none" stroke="#000" stroke-width="2.6">
    <path d="M41 35 H333 V327.2 H41 Z"/>
    <line x1="43" y1="35.5" x2="334.3" y2="326.8"/>
    <line x1="331" y1="35.5" x2="39.9" y2="326.6"/>
    <line x1="258.43" y1="250.95" x2="186.5" y2="327.2"/>
  </g>

  <g fill="none" stroke="#000" stroke-width="1.5">
    <line x1="186.5" y1="179.5" x2="186.5" y2="327.2"/>
    <path d="M186.5 300.2 A27 27 0 0 0 159.5 327.2"/>
    <path d="M239.34 231.86 A27 27 0 0 0 239.9 270.59"/>
  </g>

  <circle cx="176.5" cy="318" r="1.8" fill="#000"/>
  <circle cx="244.6" cy="252.9" r="1.8" fill="#000"/>

  <g fill="#000" font-size="21">
    <text x="43" y="25" font-family="Times New Roman,serif" text-anchor="middle">D</text>
    <text x="333.5" y="25" font-family="Times New Roman,serif" text-anchor="middle">C</text>
    <text x="160" y="184" font-family="Times New Roman,serif" text-anchor="middle">G</text>
    <text x="269.5" y="246" font-family="Times New Roman,serif" text-anchor="middle">F</text>
    <text x="43" y="352" font-family="Times New Roman,serif" text-anchor="middle">A</text>
    <text x="184.5" y="352" font-family="Times New Roman,serif" text-anchor="middle">E</text>
    <text x="333" y="352" font-family="Times New Roman,serif" text-anchor="middle">B</text>
  </g>
</svg>
