<svg xmlns="http://www.w3.org/2000/svg" width="1360" height="540" viewBox="0 0 1360 540">
  <rect width="1360" height="540" fill="#fff"/>
  <g fill="none" stroke="#000" stroke-width="3.2">
    <path d="M 337.08 52.41 L 83.63 491.50 L 590.44 491.50 Z"/>
    <path d="M 211.19 270.50 L 462.92 270.50 L 338.40 491.50 L 211.19 270.50 Z"/>
    <path d="M 1047.34 52.22 L 793.94 491.50 L 1300.79 491.50 Z"/>
    <path d="M 921.42 270.50 L 1173.28 270.50 L 1047.40 491.50 L 921.42 270.50 Z"/>
  </g>
  <g fill="#000">
    <circle cx="311.0" cy="203.0" r="2.4"/>
    <circle cx="319.0" cy="203.0" r="2.4"/>
    <circle cx="327.0" cy="203.0" r="2.4"/>
    <circle cx="336.5" cy="203.0" r="2.4"/>
    <circle cx="344.5" cy="203.0" r="2.4"/>
    <circle cx="353.0" cy="203.0" r="2.4"/>
    <circle cx="362.0" cy="203.0" r="2.4"/>
    <circle cx="311.0" cy="345.5" r="2.4"/>
    <circle cx="319.0" cy="345.5" r="2.4"/>
    <circle cx="327.0" cy="345.5" r="2.4"/>
    <circle cx="336.5" cy="345.5" r="2.4"/>
    <circle cx="344.5" cy="345.5" r="2.4"/>
    <circle cx="353.0" cy="345.5" r="2.4"/>
    <circle cx="362.0" cy="345.5" r="2.4"/>
    <circle cx="177.0" cy="440.5" r="2.4"/>
    <circle cx="185.5" cy="440.5" r="2.4"/>
    <circle cx="193.5" cy="440.5" r="2.4"/>
    <circle cx="203.0" cy="440.5" r="2.4"/>
    <circle cx="211.0" cy="440.5" r="2.4"/>
    <circle cx="219.0" cy="440.5" r="2.4"/>
    <circle cx="228.0" cy="440.5" r="2.4"/>
    <circle cx="452.0" cy="440.5" r="2.4"/>
    <circle cx="460.0" cy="440.5" r="2.4"/>
    <circle cx="468.0" cy="440.5" r="2.4"/>
    <circle cx="477.5" cy="440.5" r="2.4"/>
    <circle cx="485.5" cy="440.5" r="2.4"/>
    <circle cx="494.0" cy="440.5" r="2.4"/>
    <circle cx="503.0" cy="440.5" r="2.4"/>
    <circle cx="1016.0" cy="203.0" r="2.4"/>
    <circle cx="1024.5" cy="203.0" r="2.4"/>
    <circle cx="1033.0" cy="203.0" r="2.4"/>
    <circle cx="1042.0" cy="203.0" r="2.4"/>
    <circle cx="1050.0" cy="203.0" r="2.4"/>
    <circle cx="1058.0" cy="203.0" r="2.4"/>
    <circle cx="1067.0" cy="203.0" r="2.4"/>
    <circle cx="1016.0" cy="345.5" r="2.4"/>
    <circle cx="1024.5" cy="345.5" r="2.4"/>
    <circle cx="1033.0" cy="345.5" r="2.4"/>
    <circle cx="1042.0" cy="345.5" r="2.4"/>
    <circle cx="1050.0" cy="345.5" r="2.4"/>
    <circle cx="1058.0" cy="345.5" r="2.4"/>
    <circle cx="1067.0" cy="345.5" r="2.4"/>
    <circle cx="892.0" cy="440.5" r="2.4"/>
    <circle cx="900.5" cy="440.5" r="2.4"/>
    <circle cx="908.5" cy="440.5" r="2.4"/>
    <circle cx="917.5" cy="440.5" r="2.4"/>
    <circle cx="925.5" cy="440.5" r="2.4"/>
    <circle cx="934.0" cy="440.5" r="2.4"/>
    <circle cx="943.0" cy="440.5" r="2.4"/>
    <circle cx="1158.0" cy="440.5" r="2.4"/>
    <circle cx="1167.0" cy="440.5" r="2.4"/>
    <circle cx="1175.0" cy="440.5" r="2.4"/>
    <circle cx="1184.0" cy="440.5" r="2.4"/>
    <circle cx="1192.0" cy="440.5" r="2.4"/>
    <circle cx="1200.0" cy="440.5" r="2.4"/>
    <circle cx="1209.5" cy="440.5" r="2.4"/>
    <text x="107.0" y="61.0" font-family="Times New Roman,serif" font-weight="bold" font-size="36">siatka I</text>
    <text x="856.5" y="61.0" font-family="Times New Roman,serif" font-weight="bold" font-size="36">siatka II</text>
  </g>
</svg>
