<svg xmlns="http://www.w3.org/2000/svg" width="940" height="146" viewBox="0 0 940 146">
  <rect width="940" height="146" fill="#fff"/>

  <!-- Group 1: single element, 17 cm -->
  <path d="M10,48 L48.5,10 L111,10 L75.5,48 L112,87 L48.5,87 Z" fill="none" stroke="#000" stroke-width="1.5"/>
  <line x1="10" y1="52" x2="10" y2="100" stroke="#000" stroke-width="1" stroke-dasharray="5,3"/>
  <line x1="112" y1="91" x2="112" y2="100" stroke="#000" stroke-width="1" stroke-dasharray="5,3"/>
  <line x1="11" y1="104" x2="111" y2="104" stroke="#000" stroke-width="1"/>
  <path d="M11,104 L17,101 M11,104 L17,107" fill="none" stroke="#000" stroke-width="1"/>
  <path d="M111,104 L105,101 M111,104 L105,107" fill="none" stroke="#000" stroke-width="1"/>
  <text x="34" y="128" font-family="Times New Roman,serif" font-size="20">17 cm</text>

  <!-- Group 2: two elements, 28 cm -->
  <path d="M177,51 L215,12 L346,12 L308,51 L346,89 L215,89 Z" fill="none" stroke="#000" stroke-width="1.5"/>
  <path d="M280,12 L242.5,51 L280,89" fill="none" stroke="#000" stroke-width="1.3"/>
  <line x1="177" y1="55" x2="177" y2="104" stroke="#000" stroke-width="1" stroke-dasharray="5,3"/>
  <line x1="346" y1="93" x2="346" y2="104" stroke="#000" stroke-width="1" stroke-dasharray="5,3"/>
  <line x1="178" y1="108" x2="345" y2="108" stroke="#000" stroke-width="1"/>
  <path d="M178,108 L184,105 M178,108 L184,111" fill="none" stroke="#000" stroke-width="1"/>
  <path d="M345,108 L339,105 M345,108 L339,111" fill="none" stroke="#000" stroke-width="1"/>
  <text x="229" y="130" font-family="Times New Roman,serif" font-size="20">28 cm</text>

  <!-- Group 3: six elements, ? -->
  <path d="M499,54 L537,16 L928,16 L891,54 L928,92 L537,92 Z" fill="none" stroke="#000" stroke-width="1.5"/>
  <path d="M602,16 L564,54 L602,92" fill="none" stroke="#000" stroke-width="1.3"/>
  <path d="M668,16 L630,54 L668,92" fill="none" stroke="#000" stroke-width="1.3"/>
  <path d="M733,16 L695,54 L733,92" fill="none" stroke="#000" stroke-width="1.3"/>
  <path d="M798,16 L760,54 L798,92" fill="none" stroke="#000" stroke-width="1.3"/>
  <path d="M864,16 L826,54 L864,92" fill="none" stroke="#000" stroke-width="1.3"/>
  <line x1="499" y1="58" x2="499" y2="107" stroke="#000" stroke-width="1" stroke-dasharray="5,3"/>
  <line x1="928" y1="96" x2="928" y2="107" stroke="#000" stroke-width="1" stroke-dasharray="5,3"/>
  <line x1="500" y1="111" x2="927" y2="111" stroke="#000" stroke-width="1"/>
  <path d="M500,111 L506,108 M500,111 L506,114" fill="none" stroke="#000" stroke-width="1"/>
  <path d="M927,111 L921,108 M927,111 L921,114" fill="none" stroke="#000" stroke-width="1"/>
  <text x="703" y="134" font-family="Times New Roman,serif" font-size="20">?</text>
</svg>
